<?xml version="1.0" encoding="UTF-8" standalone="no"?>
<!DOCTYPE svg PUBLIC "-//W3C//DTD SVG 1.1//EN" "http://www.w3.org/Graphics/SVG/1.1/DTD/svg11.dtd">
<svg width="100%" height="100%" viewBox="0 0 445 612" version="1.1" xmlns="http://www.w3.org/2000/svg" xmlns:xlink="http://www.w3.org/1999/xlink" xml:space="preserve" xmlns:serif="http://www.serif.com/" style="fill-rule:evenodd;clip-rule:evenodd;stroke-linejoin:round;stroke-miterlimit:2;">
    <path d="M138.5,0C88.676,0 41.606,11.966 0,33.164L0,84.684C8.713,79.21 17.756,74.231 27.097,69.807C34.269,78.891 80.647,143.916 124.157,220.894C79.565,232.785 36.836,240.26 0.001,244.962L0.001,291.011C43.425,285.637 94.249,276.502 145.673,261.056C153.323,275.878 160.495,290.7 166.71,305.522C163.363,306.478 159.538,307.435 156.191,308.391C87.725,330.485 35.544,371.932 0.001,408.698L0.001,478.586C27.734,441.653 84.194,383.834 183.444,349.032C183.923,348.553 184.401,348.553 184.879,348.553C221.694,443.7 236.517,524.026 240.819,546.497C209.263,560.362 174.839,567.534 138.501,567.534C87.757,567.534 40.067,552.945 0.001,527.772L0.001,578.835C41.606,600.034 88.676,612 138.5,612C307.278,612 444.5,474.778 444.5,306C444.5,137.222 307.278,0 138.5,0ZM174.359,204.638C131.328,125.747 83.993,61.679 76.821,51.638C96.903,47.335 117.462,44.944 138.499,44.944C204.958,44.944 265.681,69.806 311.58,110.447C306.8,117.141 267.594,169.734 174.359,204.638ZM212.609,282.094C207.349,269.663 201.134,256.753 195.396,244.322C291.021,204.638 335.009,148.219 340.747,141.047C377.084,185.513 399.078,242.409 400.034,303.609C391.428,302.174 304.888,284.484 218.346,295.481C216.435,291.178 214.521,286.397 212.609,282.094ZM284.328,522.591C281.459,506.813 267.594,430.313 233.646,336.6C315.406,323.691 387.125,344.729 396.208,348.076C384.734,420.271 343.138,483.385 284.328,522.591Z" style="fill:url(#_Linear1);fill-rule:nonzero;"/>
    <defs>
        <linearGradient id="_Linear1" x1="0" y1="0" x2="1" y2="0" gradientUnits="userSpaceOnUse" gradientTransform="matrix(3.74742e-14,612,-612,3.74742e-14,222.25,0)"><stop offset="0" style="stop-color:white;stop-opacity:0.29"/><stop offset="1" style="stop-color:white;stop-opacity:0.11"/></linearGradient>
    </defs>
</svg>
